<svg width="48" height="48" viewBox="0 0 48 48" fill="none" xmlns="http://www.w3.org/2000/svg">
<circle cx="24" cy="24" r="24" fill="white"/>
<path d="M27 16.9999L31 20.9999M33.174 18.8119C33.7027 18.2833 33.9998 17.5664 33.9999 16.8187C34 16.0711 33.7031 15.3541 33.1745 14.8254C32.6459 14.2967 31.929 13.9996 31.1813 13.9995C30.4337 13.9994 29.7167 14.2963 29.188 14.8249L15.842 28.1739C15.6098 28.4054 15.4381 28.6904 15.342 29.0039L14.021 33.3559C13.9952 33.4424 13.9932 33.5342 14.0153 33.6217C14.0375 33.7092 14.0829 33.7891 14.1468 33.8529C14.2107 33.9167 14.2906 33.962 14.3782 33.984C14.4657 34.006 14.5576 34.0039 14.644 33.9779L18.997 32.6579C19.3102 32.5626 19.5952 32.392 19.827 32.1609L33.174 18.8119Z" stroke="#FF8A00" stroke-width="2" stroke-linecap="round" stroke-linejoin="round"/>
</svg>
