<svg width="118" height="146" viewBox="0 0 118 146" fill="none" xmlns="http://www.w3.org/2000/svg">
<path d="M42.9395 27.1999C71.7199 24.1162 80.8423 44.331 81.806 54.8239C47.7883 60.3451 33.0996 44.1713 27.8581 27.1999M27.8581 27.1999C25.5371 19.6848 25.0685 12.0134 25.5943 6H78.9151C97.3646 6 112.321 20.9563 112.321 39.4058C112.321 57.8554 97.3646 72.8116 78.9151 72.8116H48.4001C24.806 72.8116 5.6792 53.6848 5.6792 30.0907L5.77547 27.1999H27.8581ZM42.9395 118.423C71.7199 121.507 80.8423 101.292 81.806 90.7994C47.7883 85.2782 33.0996 101.452 27.8581 118.423M27.8581 118.423C25.5371 125.938 25.0685 133.61 25.5943 139.623H78.9151C97.3646 139.623 112.321 124.667 112.321 106.217C112.321 87.7679 97.3646 72.8116 78.9151 72.8116H48.4001C24.806 72.8116 5.6792 91.9384 5.6792 115.533L5.77547 118.423H27.8581Z" stroke="url(#paint0_linear_2_1459)" stroke-width="11.0319"/>
<defs>
<linearGradient id="paint0_linear_2_1459" x1="112.321" y1="6" x2="5.67919" y2="139.302" gradientUnits="userSpaceOnUse">
<stop stop-color="white"/>
<stop offset="1" stop-color="#FFC275"/>
</linearGradient>
</defs>
</svg>
